<svg width="40" height="40" viewBox="0 0 40 40" fill="black" xmlns="http://www.w3.org/2000/svg">
<path d="M19.9999 7.33331C13.0155 7.33331 7.33325 13.0156 7.33325 20C7.33325 26.9844 13.0155 32.6666 19.9999 32.6666C26.9843 32.6666 32.6666 26.9844 32.6666 20C32.6666 13.0156 26.9843 7.33331 19.9999 7.33331ZM19.9999 30C18.0221 30 16.0887 29.4135 14.4442 28.3147C12.7997 27.2159 11.518 25.6541 10.7611 23.8268C10.0042 21.9996 9.80621 19.9889 10.1921 18.0491C10.5779 16.1093 11.5303 14.3274 12.9289 12.9289C14.3274 11.5304 16.1092 10.578 18.049 10.1921C19.9888 9.80627 21.9995 10.0043 23.8267 10.7612C25.654 11.5181 27.2158 12.7998 28.3146 14.4443C29.4134 16.0888 29.9999 18.0222 29.9999 20C29.9969 22.6512 28.9424 25.193 27.0677 27.0677C25.193 28.9424 22.6512 29.997 19.9999 30Z" fill="black"/>
<path d="M21.3334 0H18.6667V4H21.3334V0Z" fill="black"/>
<path d="M21.3334 36H18.6667V40H21.3334V36Z" fill="black"/>
<path d="M40 18.6667H36V21.3333H40V18.6667Z" fill="black"/>
<path d="M4 18.6667H0V21.3333H4V18.6667Z" fill="black"/>
<path d="M32.9429 31.0572L31.0573 32.9428L33.7239 35.6095L35.6095 33.7239L32.9429 31.0572Z" fill="black"/>
<path d="M6.2763 4.39051L4.39062 6.27618L7.0573 8.94286L8.94298 7.05718L6.2763 4.39051Z" fill="black"/>
<path d="M7.05701 31.0573L4.39038 33.7241L6.27603 35.6096L8.94266 32.9429L7.05701 31.0573Z" fill="black"/>
<path d="M33.7239 4.39048L31.0573 7.05716L32.9429 8.94284L35.6096 6.27616L33.7239 4.39048Z" fill="black"/>
</svg>
