<svg width="30" height="29" viewBox="0 0 30 29" fill="#000" xmlns="http://www.w3.org/2000/svg">
<path d="M15 5.40466C9.76169 5.40466 5.5 9.48398 5.5 14.4981C5.5 19.5123 9.76169 23.5916 15 23.5916C20.2383 23.5916 24.5 19.5123 24.5 14.4981C24.5 9.48398 20.2383 5.40466 15 5.40466ZM15 21.6772C13.5166 21.6772 12.0666 21.2561 10.8332 20.4673C9.59985 19.6785 8.63856 18.5572 8.0709 17.2454C7.50325 15.9336 7.35472 14.4902 7.64411 13.0976C7.9335 11.705 8.64781 10.4258 9.6967 9.42178C10.7456 8.41777 12.082 7.73403 13.5368 7.45702C14.9917 7.18002 16.4997 7.32219 17.8701 7.86555C19.2406 8.40892 20.4119 9.32908 21.236 10.5097C22.0601 11.6903 22.5 13.0783 22.5 14.4981C22.4977 16.4015 21.7069 18.2262 20.3008 19.5721C18.8948 20.918 16.9884 21.675 15 21.6772Z" fill="#000"/>
<path d="M16 0.140381H14V3.012H16V0.140381Z" fill="#000"/>
<path d="M16 25.9849H14V28.8565H16V25.9849Z" fill="#000"/>
<path d="M30 13.5413H27V15.4557H30V13.5413Z" fill="#000"/>
<path d="M3 13.5413H0V15.4557H3V13.5413Z" fill="#000"/>
<path d="M24.7072 22.4363L23.293 23.79L25.293 25.7044L26.7072 24.3507L24.7072 22.4363Z" fill="#000"/>
<path d="M4.70723 3.29201L3.29297 4.64575L5.29298 6.56017L6.70723 5.20644L4.70723 3.29201Z" fill="#000"/>
<path d="M5.29245 22.4365L3.29248 24.3509L4.70672 25.7046L6.70669 23.7901L5.29245 22.4365Z" fill="#000"/>
<path d="M25.293 3.29224L23.293 5.20667L24.7072 6.5604L26.7072 4.64598L25.293 3.29224Z" fill="#000"/>
</svg>
