<svg width="30" height="30" viewBox="0 0 30 30" fill="none" xmlns="http://www.w3.org/2000/svg">
<path d="M15.0147 2.5C8.13215 2.5 2.52936 8.09798 2.52686 14.9805C2.52561 17.1805 3.10184 19.3282 4.19434 21.2207L2.5 27.5L9.04053 25.9546C10.8643 26.9496 12.9173 27.4719 15.0073 27.4732H15.0122C21.8935 27.4732 27.4938 21.8739 27.4976 14.9927C27.5001 11.6564 26.2027 8.51968 23.8452 6.15968C21.4877 3.80093 18.3547 2.50125 15.0147 2.5ZM15.0122 5C17.6822 5.00125 20.1914 6.04225 22.0776 7.92725C23.9639 9.81475 25.0001 12.3227 24.9976 14.9902C24.9951 20.4952 20.5173 24.9732 15.0098 24.9732C13.3435 24.9719 11.693 24.5535 10.2393 23.7598L9.39698 23.3008L8.4668 23.5205L6.00586 24.1016L6.60645 21.8701L6.87745 20.8691L6.35988 19.9707C5.48738 18.4607 5.02561 16.7342 5.02686 14.9805C5.02936 9.47796 9.50847 5 15.0122 5ZM10.5957 9.21875C10.387 9.21875 10.0494 9.29688 9.76318 9.60938C9.47693 9.92063 8.66943 10.6745 8.66943 12.2095C8.66943 13.7445 9.78759 15.2283 9.94384 15.437C10.0988 15.6445 12.1022 18.8941 15.2734 20.1441C17.9084 21.1828 18.4436 20.9778 19.0161 20.9253C19.5886 20.8741 20.863 20.1721 21.123 19.4434C21.383 18.7146 21.3836 18.0877 21.3061 17.959C21.2286 17.829 21.0205 17.7515 20.708 17.5952C20.3967 17.439 18.8629 16.6858 18.5766 16.582C18.2904 16.4783 18.081 16.4258 17.8735 16.7383C17.666 17.0508 17.0697 17.7515 16.8872 17.959C16.7047 18.1677 16.5234 18.1958 16.2109 18.0395C15.8984 17.882 14.8937 17.5517 13.7012 16.4892C12.7737 15.663 12.1478 14.6435 11.9653 14.331C11.7841 14.0198 11.9482 13.8488 12.1045 13.6938C12.2445 13.5538 12.4145 13.3295 12.5708 13.147C12.7258 12.9645 12.7795 12.8344 12.8833 12.6269C12.987 12.4194 12.9339 12.2363 12.8564 12.0801C12.7789 11.9238 12.172 10.3831 11.8945 9.7656C11.6608 9.24685 11.4139 9.2348 11.1914 9.22605C11.0101 9.21855 10.8032 9.21875 10.5957 9.21875Z" fill="#FDD159"/>
</svg>
