<svg width="30" height="30" viewBox="0 0 30 30" fill="none" xmlns="http://www.w3.org/2000/svg">
<path d="M13.6251 2.625C7.87514 3.25 3.25013 7.875 2.62513 13.5C2.00013 19.375 5.37513 24.625 10.5001 26.625C10.8751 26.75 11.2501 26.5 11.2501 26V24C11.2501 24 10.7501 24.125 10.1251 24.125C8.37514 24.125 7.62513 22.625 7.50013 21.75C7.37513 21.25 7.12513 20.875 6.75013 20.5C6.37513 20.375 6.25013 20.375 6.25013 20.25C6.25013 20 6.62513 20 6.75013 20C7.50013 20 8.12513 20.875 8.37513 21.25C9.00014 22.25 9.75014 22.5 10.1251 22.5C10.6251 22.5 11.0001 22.375 11.2501 22.25C11.3751 21.375 11.7501 20.5 12.5001 20C9.62514 19.375 7.50013 17.75 7.50013 15C7.50013 13.625 8.12513 12.25 9.00014 11.25C8.87513 11 8.75014 10.375 8.75014 9.5C8.75014 9 8.75014 8.25 9.12514 7.5C9.12514 7.5 10.8751 7.5 12.6251 9.125C13.2501 8.875 14.1251 8.75 15.0001 8.75C15.8751 8.75 16.7501 8.875 17.5001 9.125C19.1251 7.5 21.0001 7.5 21.0001 7.5C21.2501 8.25 21.2501 9 21.2501 9.5C21.2501 10.5 21.1251 11 21.0001 11.25C21.8751 12.25 22.5001 13.5 22.5001 15C22.5001 17.75 20.3751 19.375 17.5001 20C18.2501 20.625 18.7501 21.75 18.7501 22.875V26.125C18.7501 26.5 19.1251 26.875 19.6251 26.75C24.2501 24.875 27.5001 20.375 27.5001 15.125C27.5001 7.625 21.1251 1.75 13.6251 2.625Z" fill="#FDD159"/>
</svg>
