<svg width="30" height="30" viewBox="0 0 30 30" fill="none" xmlns="http://www.w3.org/2000/svg">
<path d="M7.20019 14.0418V14.034V6.2334L7.1282 6.18H7.12219L5.4842 4.968C4.4822 4.224 3.0542 4.26 2.1662 5.136C1.5722 5.724 1.2002 6.54 1.2002 7.446V9.6072L7.20019 14.0418ZM22.8002 14.034V14.0418L28.8002 9.6072V7.446C28.8002 6.552 28.4402 5.736 27.8522 5.148C26.9762 4.2738 25.5932 4.1712 24.5978 4.9062L22.8722 6.18L22.8002 6.2334V14.034ZM8.40019 14.9208L14.6438 19.536C14.8556 19.6926 15.1454 19.6926 15.3572 19.536L21.6002 14.9208V7.1202L15.0002 12L8.40019 7.1202V14.9208ZM22.8002 15.5334V24.6C22.8002 24.9312 23.069 25.2 23.4002 25.2H27.3002C28.1288 25.2 28.8002 24.5286 28.8002 23.7V11.0982L22.8002 15.5334ZM7.20019 15.5334L1.2002 11.0982V23.7C1.2002 24.5286 1.8716 25.2 2.7002 25.2H6.60019C6.93139 25.2 7.20019 24.9312 7.20019 24.6V15.5334Z" fill="#fff"/>
</svg>
